<svg viewBox="0 0 1400 800" xmlns="http://www.w3.org/2000/svg">
  <!-- Title -->
  <text x="700" y="30" text-anchor="middle" font-size="24" font-weight="bold" fill="#333">Vast OST Driver - Backup and Restore Data Flow</text>
  
  <!-- Backup Flow -->
  <g id="backup-flow">
    <rect x="50" y="60" width="650" height="700" fill="#f9f9f9" stroke="#333" stroke-width="2" rx="10"/>
    <text x="375" y="90" text-anchor="middle" font-size="18" font-weight="bold" fill="#333">Backup Flow</text>
    
    <!-- Client -->
    <rect x="250" y="120" width="200" height="60" fill="white" stroke="#333" stroke-width="2" rx="5"/>
    <text x="350" y="155" text-anchor="middle" font-size="14" fill="#333">NetBackup Client</text>
    
    <!-- Arrow 1 -->
    <path d="M 350 180 L 350 220" stroke="#333" stroke-width="2" marker-end="url(#arrowhead)"/>
    <text x="360" y="205" font-size="10" fill="#666">Data Stream</text>
    
    <!-- Media Server -->
    <rect x="200" y="220" width="300" height="80" fill="white" stroke="#333" stroke-width="2" rx="5"/>
    <text x="350" y="250" text-anchor="middle" font-size="14" fill="#333">NetBackup Media Server</text>
    <text x="350" y="270" text-anchor="middle" font-size="11" fill="#666">Receives client data</text>
    <text x="350" y="285" text-anchor="middle" font-size="11" fill="#666">Calls OST plugin APIs</text>
    
    <!-- Arrow 2 -->
    <path d="M 350 300 L 350 340" stroke="#333" stroke-width="2" marker-end="url(#arrowhead)"/>
    <text x="360" y="325" font-size="10" fill="#666">stsp_write_image()</text>
    
    <!-- OST Plugin -->
    <rect x="150" y="340" width="400" height="120" fill="#e8e8e8" stroke="#333" stroke-width="2" rx="5"/>
    <text x="350" y="365" text-anchor="middle" font-size="14" font-weight="bold" fill="#333">Vast OST Plugin</text>
    
    <!-- Plugin Components -->
    <rect x="170" y="380" width="160" height="60" fill="white" stroke="#666" stroke-width="1" rx="3"/>
    <text x="250" y="405" text-anchor="middle" font-size="11" fill="#333">1. Chunk Data</text>
    <text x="250" y="420" text-anchor="middle" font-size="10" fill="#666">64MB blocks</text>
    
    <rect x="370" y="380" width="160" height="60" fill="white" stroke="#666" stroke-width="1" rx="3"/>
    <text x="450" y="405" text-anchor="middle" font-size="11" fill="#333">2. Add Headers</text>
    <text x="450" y="420" text-anchor="middle" font-size="10" fill="#666">S3 metadata</text>
    
    <!-- Arrow 3 -->
    <path d="M 350 460 L 350 500" stroke="#333" stroke-width="2" marker-end="url(#arrowhead)"/>
    <text x="360" y="485" font-size="10" fill="#666">S3 PUT requests</text>
    
    <!-- S3 Operations -->
    <rect x="150" y="500" width="400" height="100" fill="white" stroke="#333" stroke-width="2" rx="5"/>
    <text x="350" y="525" text-anchor="middle" font-size="14" fill="#333">S3 Protocol Operations</text>
    <text x="350" y="545" text-anchor="middle" font-size="11" fill="#666">• Multipart upload initiation</text>
    <text x="350" y="565" text-anchor="middle" font-size="11" fill="#666">• Parallel part uploads (4-8 streams)</text>
    <text x="350" y="585" text-anchor="middle" font-size="11" fill="#666">• Complete multipart upload</text>
    
    <!-- Arrow 4 -->
    <path d="M 350 600 L 350 640" stroke="#333" stroke-width="2" marker-end="url(#arrowhead)"/>
    <text x="360" y="625" font-size="10" fill="#666">S3 API (Port 9000)</text>
    
    <!-- Vast Cluster -->
    <rect x="150" y="640" width="400" height="100" fill="#333" stroke="#333" stroke-width="2" rx="5"/>
    <text x="350" y="670" text-anchor="middle" font-size="14" font-weight="bold" fill="white">Vast Data Cluster</text>
    <text x="350" y="690" text-anchor="middle" font-size="11" fill="white">• Store as objects</text>
    <text x="350" y="710" text-anchor="middle" font-size="11" fill="white">• Apply deduplication</text>
    <text x="350" y="730" text-anchor="middle" font-size="11" fill="white">• Update metadata</text>
  </g>
  
  <!-- Restore Flow -->
  <g id="restore-flow">
    <rect x="750" y="60" width="600" height="700" fill="#f9f9f9" stroke="#333" stroke-width="2" rx="10"/>
    <text x="1050" y="90" text-anchor="middle" font-size="18" font-weight="bold" fill="#333">Restore Flow</text>
    
    <!-- Vast Cluster -->
    <rect x="850" y="120" width="400" height="100" fill="#333" stroke="#333" stroke-width="2" rx="5"/>
    <text x="1050" y="150" text-anchor="middle" font-size="14" font-weight="bold" fill="white">Vast Data Cluster</text>
    <text x="1050" y="170" text-anchor="middle" font-size="11" fill="white">• Locate objects</text>
    <text x="1050" y="190" text-anchor="middle" font-size="11" fill="white">• Prepare data streams</text>
    <text x="1050" y="210" text-anchor="middle" font-size="11" fill="white">• Serve S3 GET requests</text>
    
    <!-- Arrow 1 -->
    <path d="M 1050 220 L 1050 260" stroke="#333" stroke-width="2" marker-end="url(#arrowhead)"/>
    <text x="1060" y="245" font-size="10" fill="#666">S3 API (Port 9000)</text>
    
    <!-- S3 Operations -->
    <rect x="850" y="260" width="400" height="100" fill="white" stroke="#333" stroke-width="2" rx="5"/>
    <text x="1050" y="285" text-anchor="middle" font-size="14" fill="#333">S3 Protocol Operations</text>
    <text x="1050" y="305" text-anchor="middle" font-size="11" fill="#666">• List object parts</text>
    <text x="1050" y="325" text-anchor="middle" font-size="11" fill="#666">• Parallel GET requests (4-8 streams)</text>
    <text x="1050" y="345" text-anchor="middle" font-size="11" fill="#666">• Range requests for partial restore</text>
    
    <!-- Arrow 2 -->
    <path d="M 1050 360 L 1050 400" stroke="#333" stroke-width="2" marker-end="url(#arrowhead)"/>
    <text x="1060" y="385" font-size="10" fill="#666">S3 GET responses</text>
    
    <!-- OST Plugin -->
    <rect x="850" y="400" width="400" height="120" fill="#e8e8e8" stroke="#333" stroke-width="2" rx="5"/>
    <text x="1050" y="425" text-anchor="middle" font-size="14" font-weight="bold" fill="#333">Vast OST Plugin</text>
    
    <!-- Plugin Components -->
    <rect x="870" y="440" width="160" height="60" fill="white" stroke="#666" stroke-width="1" rx="3"/>
    <text x="950" y="465" text-anchor="middle" font-size="11" fill="#333">1. Receive Data</text>
    <text x="950" y="480" text-anchor="middle" font-size="10" fill="#666">Buffer chunks</text>
    
    <rect x="1070" y="440" width="160" height="60" fill="white" stroke="#666" stroke-width="1" rx="3"/>
    <text x="1150" y="465" text-anchor="middle" font-size="11" fill="#333">2. Reassemble</text>
    <text x="1150" y="480" text-anchor="middle" font-size="10" fill="#666">Original format</text>
    
    <!-- Arrow 3 -->
    <path d="M 1050 520 L 1050 560" stroke="#333" stroke-width="2" marker-end="url(#arrowhead)"/>
    <text x="1060" y="545" font-size="10" fill="#666">stsp_read_image()</text>
    
    <!-- Media Server -->
    <rect x="900" y="560" width="300" height="80" fill="white" stroke="#333" stroke-width="2" rx="5"/>
    <text x="1050" y="590" text-anchor="middle" font-size="14" fill="#333">NetBackup Media Server</text>
    <text x="1050" y="610" text-anchor="middle" font-size="11" fill="#666">Receives restored data</text>
    <text x="1050" y="625" text-anchor="middle" font-size="11" fill="#666">Sends to client</text>
    
    <!-- Arrow 4 -->
    <path d="M 1050 640 L 1050 680" stroke="#333" stroke-width="2" marker-end="url(#arrowhead)"/>
    <text x="1060" y="665" font-size="10" fill="#666">Data Stream</text>
    
    <!-- Client -->
    <rect x="950" y="680" width="200" height="60" fill="white" stroke="#333" stroke-width="2" rx="5"/>
    <text x="1050" y="715" text-anchor="middle" font-size="14" fill="#333">NetBackup Client</text>
  </g>
  
  <!-- Protocol Legend -->
  <g id="legend">
    <rect x="550" y="780" width="300" height="40" fill="white" stroke="#666" stroke-width="1" rx="5"/>
    <text x="560" y="805" font-size="12" fill="#333" font-weight="bold">Protocols:</text>
    <text x="640" y="805" font-size="11" fill="#666">Control: REST/HTTPS</text>
    <text x="760" y="805" font-size="11" fill="#666">Data: S3/HTTP</text>
  </g>
  
  <!-- Arrow definitions -->
  <defs>
    <marker id="arrowhead" markerWidth="10" markerHeight="7" refX="9" refY="3.5" orient="auto">
      <polygon points="0 0, 10 3.5, 0 7" fill="#333"/>
    </marker>
  </defs>
</svg>