<svg viewBox="0 0 1200 900" xmlns="http://www.w3.org/2000/svg">
  <!-- Title -->
  <text x="600" y="30" text-anchor="middle" font-size="24" font-weight="bold" fill="#333">Vast Data OST Driver - NFS-Based Architecture</text>
  
  <!-- Main Container -->
  <rect x="50" y="60" width="1100" height="820" fill="white" stroke="#333" stroke-width="3" rx="10"/>
  <text x="600" y="90" text-anchor="middle" font-size="18" font-weight="bold" fill="#333">libstspiVastDataMT.so</text>
  
  <!-- OST API Layer -->
  <g id="ost-api-layer">
    <rect x="100" y="120" width="1000" height="100" fill="#f8f8f8" stroke="#333" stroke-width="2" rx="5"/>
    <text x="600" y="145" text-anchor="middle" font-size="16" font-weight="bold" fill="#333">OST API Implementation Layer</text>
    <text x="600" y="165" text-anchor="middle" font-size="12" fill="#666">NetBackup Interface (stsp_* functions)</text>
    
    <!-- API Categories -->
    <rect x="120" y="175" width="150" height="35" fill="white" stroke="#666" stroke-width="1" rx="3"/>
    <text x="195" y="198" text-anchor="middle" font-size="10" fill="#333">Server Management</text>
    
    <rect x="290" y="175" width="150" height="35" fill="white" stroke="#666" stroke-width="1" rx="3"/>
    <text x="365" y="198" text-anchor="middle" font-size="10" fill="#333">LSU Operations</text>
    
    <rect x="460" y="175" width="150" height="35" fill="white" stroke="#666" stroke-width="1" rx="3"/>
    <text x="535" y="198" text-anchor="middle" font-size="10" fill="#333">Image Read/Write</text>
    
    <rect x="630" y="175" width="150" height="35" fill="white" stroke="#666" stroke-width="1" rx="3"/>
    <text x="705" y="198" text-anchor="middle" font-size="10" fill="#333">Copy Operations</text>
    
    <rect x="800" y="175" width="150" height="35" fill="white" stroke="#666" stroke-width="1" rx="3"/>
    <text x="875" y="198" text-anchor="middle" font-size="10" fill="#333">Metadata/Events</text>
  </g>
  
  <!-- Business Logic Layer -->
  <g id="business-logic">
    <rect x="100" y="240" width="1000" height="120" fill="white" stroke="#333" stroke-width="2" rx="5"/>
    <text x="600" y="265" text-anchor="middle" font-size="16" font-weight="bold" fill="#333">Business Logic Layer</text>
    
    <!-- Components -->
    <rect x="120" y="285" width="220" height="60" fill="#f8f8f8" stroke="#666" stroke-width="1" rx="3"/>
    <text x="230" y="310" text-anchor="middle" font-size="11" fill="#333">Path Management</text>
    <text x="230" y="330" text-anchor="middle" font-size="10" fill="#666">/vast-mount/lsu/image</text>
    
    <rect x="360" y="285" width="220" height="60" fill="#f8f8f8" stroke="#666" stroke-width="1" rx="3"/>
    <text x="470" y="310" text-anchor="middle" font-size="11" fill="#333">State Management</text>
    <text x="470" y="330" text-anchor="middle" font-size="10" fill="#666">Image states, handles</text>
    
    <rect x="600" y="285" width="220" height="60" fill="#f8f8f8" stroke="#666" stroke-width="1" rx="3"/>
    <text x="710" y="310" text-anchor="middle" font-size="11" fill="#333">Catalog Operations</text>
    <text x="710" y="330" text-anchor="middle" font-size="10" fill="#666">Image listing, properties</text>
    
    <rect x="840" y="285" width="240" height="60" fill="#f8f8f8" stroke="#666" stroke-width="1" rx="3"/>
    <text x="960" y="310" text-anchor="middle" font-size="11" fill="#333">Error Translation</text>
    <text x="960" y="330" text-anchor="middle" font-size="10" fill="#666">POSIX → OST errors</text>
  </g>
  
  <!-- File Operations Layer -->
  <g id="file-operations">
    <rect x="100" y="380" width="1000" height="120" fill="#f8f8f8" stroke="#333" stroke-width="2" rx="5"/>
    <text x="600" y="405" text-anchor="middle" font-size="16" font-weight="bold" fill="#333">File Operations Layer</text>
    
    <!-- Components -->
    <rect x="120" y="425" width="220" height="60" fill="white" stroke="#666" stroke-width="1" rx="3"/>
    <text x="230" y="450" text-anchor="middle" font-size="11" fill="#333">Buffered I/O</text>
    <text x="230" y="470" text-anchor="middle" font-size="10" fill="#666">64MB buffers</text>
    
    <rect x="360" y="425" width="220" height="60" fill="white" stroke="#666" stroke-width="1" rx="3"/>
    <text x="470" y="450" text-anchor="middle" font-size="11" fill="#333">File Management</text>
    <text x="470" y="470" text-anchor="middle" font-size="10" fill="#666">Create, open, delete</text>
    
    <rect x="600" y="425" width="220" height="60" fill="white" stroke="#666" stroke-width="1" rx="3"/>
    <text x="710" y="450" text-anchor="middle" font-size="11" fill="#333">Directory Operations</text>
    <text x="710" y="470" text-anchor="middle" font-size="10" fill="#666">LSU as directories</text>
    
    <rect x="840" y="425" width="240" height="60" fill="white" stroke="#666" stroke-width="1" rx="3"/>
    <text x="960" y="450" text-anchor="middle" font-size="11" fill="#333">Metadata Files</text>
    <text x="960" y="470" text-anchor="middle" font-size="10" fill="#666">.meta companion files</text>
  </g>
  
  <!-- Performance Layer -->
  <g id="performance-layer">
    <rect x="100" y="520" width="1000" height="120" fill="white" stroke="#333" stroke-width="2" rx="5"/>
    <text x="600" y="545" text-anchor="middle" font-size="16" font-weight="bold" fill="#333">Performance Optimization Layer</text>
    
    <!-- Components -->
    <rect x="120" y="565" width="220" height="60" fill="#f8f8f8" stroke="#666" stroke-width="1" rx="3"/>
    <text x="230" y="590" text-anchor="middle" font-size="11" fill="#333">Write Buffering</text>
    <text x="230" y="610" text-anchor="middle" font-size="10" fill="#666">Async writes</text>
    
    <rect x="360" y="565" width="220" height="60" fill="#f8f8f8" stroke="#666" stroke-width="1" rx="3"/>
    <text x="470" y="590" text-anchor="middle" font-size="11" fill="#333">Read-ahead Cache</text>
    <text x="470" y="610" text-anchor="middle" font-size="10" fill="#666">Sequential optimization</text>
    
    <rect x="600" y="565" width="220" height="60" fill="#f8f8f8" stroke="#666" stroke-width="1" rx="3"/>
    <text x="710" y="590" text-anchor="middle" font-size="11" fill="#333">Thread Pool</text>
    <text x="710" y="610" text-anchor="middle" font-size="10" fill="#666">Parallel operations</text>
    
    <rect x="840" y="565" width="240" height="60" fill="#f8f8f8" stroke="#666" stroke-width="1" rx="3"/>
    <text x="960" y="590" text-anchor="middle" font-size="11" fill="#333">Zero-copy Operations</text>
    <text x="960" y="610" text-anchor="middle" font-size="10" fill="#666">Direct I/O when possible</text>
  </g>
  
  <!-- NFS Interface -->
  <g id="nfs-interface">
    <rect x="100" y="660" width="1000" height="80" fill="#f8f8f8" stroke="#333" stroke-width="2" rx="5"/>
    <text x="600" y="690" text-anchor="middle" font-size="16" font-weight="bold" fill="#333">POSIX/VFS Interface</text>
    <text x="600" y="710" text-anchor="middle" font-size="12" fill="#666">Standard file operations: open(), read(), write(), close(), stat(), unlink()</text>
  </g>
  
  <!-- OS/Kernel -->
  <g id="os-kernel">
    <rect x="100" y="760" width="1000" height="60" fill="#e8e8e8" stroke="#333" stroke-width="2" rx="5"/>
    <text x="600" y="795" text-anchor="middle" font-size="14" font-weight="bold" fill="#333">Linux Kernel / NFS Client</text>
  </g>
  
  <!-- Arrows showing data flow -->
  <path d="M 600 220 L 600 240" stroke="#333" stroke-width="2" marker-end="url(#arrowhead)"/>
  <path d="M 600 360 L 600 380" stroke="#333" stroke-width="2" marker-end="url(#arrowhead)"/>
  <path d="M 600 500 L 600 520" stroke="#333" stroke-width="2" marker-end="url(#arrowhead)"/>
  <path d="M 600 640 L 600 660" stroke="#333" stroke-width="2" marker-end="url(#arrowhead)"/>
  <path d="M 600 740 L 600 760" stroke="#333" stroke-width="2" marker-end="url(#arrowhead)"/>
  
  <!-- Network -->
  <path d="M 600 820 L 600 850" stroke="#333" stroke-width="3" stroke-dasharray="5,5" marker-end="url(#arrowhead)"/>
  <text x="610" y="840" font-size="11" fill="#666">NFS Protocol (TCP/UDP)</text>
  
  <!-- Vast Cluster -->
  <rect x="350" y="850" width="500" height="40" fill="#333" stroke="#333" stroke-width="2" rx="5"/>
  <text x="600" y="875" text-anchor="middle" font-size="14" font-weight="bold" fill="white">Vast Data Cluster (NFS Server)</text>
  
  <!-- Side labels -->
  <text x="30" y="170" text-anchor="middle" font-size="10" fill="#666" transform="rotate(-90 30 170)">NetBackup</text>
  <text x="30" y="300" text-anchor="middle" font-size="10" fill="#666" transform="rotate(-90 30 300)">Plugin Logic</text>
  <text x="30" y="440" text-anchor="middle" font-size="10" fill="#666" transform="rotate(-90 30 440)">File I/O</text>
  <text x="30" y="580" text-anchor="middle" font-size="10" fill="#666" transform="rotate(-90 30 580)">Performance</text>
  <text x="30" y="700" text-anchor="middle" font-size="10" fill="#666" transform="rotate(-90 30 700)">System</text>
  
  <!-- Arrow definitions -->
  <defs>
    <marker id="arrowhead" markerWidth="10" markerHeight="7" refX="9" refY="3.5" orient="auto">
      <polygon points="0 0, 10 3.5, 0 7" fill="#333"/>
    </marker>
  </defs>
</svg>